<svg width="20" height="18" viewBox="0 0 20 18" fill="none" xmlns="http://www.w3.org/2000/svg">
<path d="M14.1668 16.7341V15.0675C14.1668 14.1834 13.8156 13.3356 13.1905 12.7104C12.5654 12.0853 11.7176 11.7341 10.8335 11.7341H4.16683C3.28277 11.7341 2.43493 12.0853 1.80981 12.7104C1.18469 13.3356 0.833496 14.1834 0.833496 15.0675V16.7341M19.1668 16.7341V15.0675C19.1663 14.3289 18.9205 13.6114 18.468 13.0277C18.0155 12.444 17.3819 12.0271 16.6668 11.8425M13.3335 1.84246C14.0505 2.02605 14.686 2.44305 15.1399 3.02772C15.5937 3.6124 15.84 4.33149 15.84 5.07163C15.84 5.81177 15.5937 6.53086 15.1399 7.11554C14.686 7.70021 14.0505 8.11721 13.3335 8.3008M10.8335 5.06746C10.8335 6.90841 9.34111 8.4008 7.50016 8.4008C5.65921 8.4008 4.16683 6.90841 4.16683 5.06746C4.16683 3.22651 5.65921 1.73413 7.50016 1.73413C9.34111 1.73413 10.8335 3.22651 10.8335 5.06746Z" stroke="#BF6A02" stroke-width="2" stroke-linecap="round" stroke-linejoin="round"/>
</svg>
