<svg width="18" height="19" viewBox="0 0 18 19" fill="none" xmlns="http://www.w3.org/2000/svg">
<path d="M6.49984 15.8334C2.33317 17.0834 2.33317 13.75 0.666504 13.3334M12.3332 18.3334V15.1084C12.3644 14.711 12.3107 14.3115 12.1757 13.9365C12.0406 13.5615 11.8273 13.2195 11.5498 12.9334C14.1665 12.6417 16.9165 11.65 16.9165 7.10003C16.9163 5.93655 16.4687 4.8177 15.6665 3.97503C16.0464 2.95712 16.0195 1.83199 15.5915 0.833363C15.5915 0.833363 14.6082 0.541696 12.3332 2.0667C10.4232 1.54905 8.40983 1.54905 6.49984 2.0667C4.22484 0.541696 3.2415 0.833363 3.2415 0.833363C2.81348 1.83199 2.78662 2.95712 3.1665 3.97503C2.35828 4.82395 1.91027 5.95292 1.9165 7.12503C1.9165 11.6417 4.6665 12.6334 7.28317 12.9584C7.009 13.2417 6.79756 13.5795 6.66259 13.95C6.52763 14.3204 6.47218 14.7151 6.49984 15.1084V18.3334" stroke="#F4F4F4" stroke-width="1.3" stroke-linecap="round" stroke-linejoin="round"/>
</svg>
