<svg width="105" height="22" viewBox="0 0 105 22" fill="none" xmlns="http://www.w3.org/2000/svg">
<path d="M72.8309 19.9604C72.3171 19.9897 71.837 19.962 71.3903 19.8774C69.9833 19.7373 68.9565 19.163 68.31 18.1542C67.8165 17.2468 67.8673 16.1983 68.4623 15.0088C69.1307 13.8151 70.0115 12.4718 71.1047 10.9788C71.5169 10.46 71.8925 9.94336 72.2314 9.42879C72.6406 8.8552 72.9794 8.34064 73.248 7.88511C73.3855 7.71219 73.4878 7.56879 73.5549 7.45491C73.6189 7.28618 73.6845 7.14487 73.7517 7.03098C71.5342 6.88207 68.9621 6.97346 66.0356 7.30515C63.1794 7.57781 59.9733 8.17305 56.4174 9.09086C53.2957 9.87391 49.928 10.8636 46.3144 12.0598C42.771 13.197 38.3357 15.1802 34.4455 16.1387C33.6507 16.404 31.4547 15.5719 31.4547 15.5719C31.4547 15.5719 31.0853 15.4336 30.8025 15.089C30.3278 14.5107 30.2552 13.882 30.5847 13.2029C30.9111 12.4689 33.3473 11.0758 34.1422 10.8104C38.8758 9.28575 40.1584 8.69573 43.8455 7.49529C47.6028 6.23582 51.1524 5.2083 54.4943 4.41272C63.4254 2.19836 70.7862 1.50418 76.5768 2.33018C78.2836 2.56319 79.5017 3.26427 80.231 4.43341C80.9602 5.60256 80.89 6.9548 80.0201 8.49013C79.1502 10.0255 78.1 11.6261 76.8694 13.292C76.8023 13.4059 76.7 13.5493 76.5625 13.7222C76.4251 13.8951 76.2893 14.0955 76.155 14.3232C77.8275 13.9529 80.2918 13.2623 83.5478 12.2515C86.8038 11.2407 91.2858 9.77486 96.9936 7.85406C97.7885 7.58869 98.599 7.59758 99.4251 7.88073C100.321 8.10485 100.935 8.53767 101.266 9.17919C101.668 9.76167 101.703 10.3925 101.374 11.0716C101.041 11.6959 100.406 12.1723 99.4672 12.5009C96.1409 13.5707 93.1034 14.5416 90.3549 15.4134C87.6064 16.2853 85.1453 17.0307 82.9715 17.6497C80.0731 18.4751 77.861 19.0688 76.3353 19.4308C74.8064 19.7379 73.6383 19.9145 72.8309 19.9604Z" fill="#2647C4"/>
<path fill-rule="evenodd" clip-rule="evenodd" d="M29.6039 16.5466L29.5912 16.5418L29.5641 16.5312C29.5454 16.5238 29.5252 16.5156 29.5038 16.5067C29.461 16.4888 29.4132 16.4677 29.3614 16.4434C29.2578 16.3947 29.1384 16.3327 29.0125 16.2562C28.7596 16.1024 28.4842 15.892 28.2578 15.6163C27.6009 14.816 27.5144 13.9542 27.9428 13.0638C28.1134 12.691 28.489 12.3305 28.8249 12.0517C29.1877 11.7505 29.6214 11.4498 30.0479 11.1805C30.4765 10.9098 30.9268 10.6524 31.3411 10.4372C31.7027 10.2493 32.1943 10.01 32.6886 9.84499L32.7099 9.83789L32.7314 9.83095C35.0434 9.08626 36.5053 8.57239 37.8578 8.09163C37.9804 8.04803 38.1025 8.00458 38.2245 7.96115C39.4554 7.52311 40.6791 7.0876 42.4043 6.52566C46.2463 5.23831 49.9163 4.17386 53.4117 3.34091C62.633 1.05649 70.8258 0.188325 77.599 1.15181C80.4102 1.53888 81.9998 2.65094 82.8359 3.99141C83.7181 5.40573 83.5945 6.98456 82.6325 8.68261C82.0772 9.6627 81.451 10.6671 80.7542 11.6957C81.2081 11.5583 81.6836 11.4125 82.1809 11.2581C85.3886 10.2623 89.8336 8.8089 95.5304 6.8918L95.54 6.8886C96.3815 6.60765 97.4063 6.42058 98.5302 6.43291C99.5417 6.444 100.384 6.61385 101.049 6.82798C102.607 7.24741 103.458 7.9634 103.879 8.74746C104.4 9.53054 104.425 10.3631 104.01 11.2197L104.003 11.2328L103.996 11.2458C103.541 12.1005 102.589 12.8816 100.976 13.4463L100.926 13.4638L100.875 13.4803C97.5439 14.5516 94.5009 15.5242 91.7459 16.3981C88.9672 17.2796 86.4623 18.0385 84.2345 18.6729C81.3202 19.5028 79.0254 20.1202 77.3897 20.5083L77.3026 20.529L77.2131 20.547C75.6299 20.865 74.1383 21.1088 72.8995 21.1793C72.0164 21.2296 71.1557 21.1896 70.3533 21.0559C67.7897 20.7539 66.4262 19.7235 65.7084 18.6034L65.6941 18.5811L65.6818 18.5585C65.0692 17.432 65.1624 16.1846 65.8291 14.8519L65.8372 14.8356L65.8463 14.8193C66.5357 13.5881 67.4379 12.2135 68.5477 10.6979L68.5595 10.6818L68.5722 10.6657C68.9663 10.1699 69.3247 9.67681 69.6476 9.18647L69.6571 9.17206L69.6673 9.15772C69.9111 8.81595 70.1271 8.49871 70.316 8.20562C69.1511 8.24021 67.8611 8.33436 66.4366 8.49581L66.3847 8.50169L66.3325 8.50667C63.8579 8.7429 60.9453 9.27287 57.5666 10.145L57.5504 10.1491L57.5341 10.1532C54.548 10.9022 51.2898 11.8583 47.7563 13.028L47.7379 13.0341L47.7193 13.0401C46.4661 13.4423 45.1051 13.9542 43.5878 14.5249C43.105 14.7065 42.6063 14.8941 42.0903 15.0859C40.0925 15.8287 37.8521 16.628 35.6596 17.1769C34.365 17.5436 33.0819 17.3994 32.6752 17.3473C32.0572 17.2682 31.4996 17.1337 31.1075 17.028C30.6895 16.9152 30.3194 16.7964 30.0619 16.7093C29.9306 16.6648 29.8224 16.6265 29.7446 16.5985C29.7056 16.5844 29.674 16.5728 29.6506 16.5641L29.6218 16.5534L29.6131 16.5501L29.6071 16.5478L29.6039 16.5466ZM34.4455 16.1387C36.8429 15.548 39.4464 14.5679 41.9215 13.6368C43.4627 13.0569 44.9546 12.4962 46.3144 12.0598C49.928 10.8636 53.2957 9.87391 56.4174 9.09086C59.9733 8.17305 63.1794 7.57781 66.0356 7.30515C67.8496 7.09956 69.5265 6.986 71.0681 6.96505C72.0136 6.9522 72.9087 6.97437 73.7517 7.03098C73.7264 7.07392 73.7005 7.12047 73.6756 7.1712C73.6345 7.25503 73.5948 7.34979 73.5549 7.45491C73.5158 7.52126 73.4639 7.59733 73.401 7.68371C73.3558 7.7456 73.3054 7.81293 73.248 7.88511C73.18 8.00048 73.1067 8.11935 73.0296 8.2423C72.8025 8.60479 72.5369 9.00048 72.2314 9.42879C71.8925 9.94336 71.5169 10.46 71.1047 10.9788C70.0115 12.4718 69.1307 13.8151 68.4623 15.0088C67.8673 16.1983 67.8165 17.2468 68.31 18.1542C68.9565 19.163 69.9833 19.7373 71.3903 19.8774C71.837 19.962 72.3171 19.9897 72.8309 19.9604C73.6383 19.9145 74.8064 19.7379 76.3353 19.4308C77.861 19.0688 80.0731 18.4751 82.9715 17.6497C85.1453 17.0307 87.6064 16.2853 90.3549 15.4134C93.1034 14.5416 96.1409 13.5707 99.4672 12.5009C100.406 12.1723 101.041 11.6959 101.374 11.0716C101.703 10.3925 101.668 9.76167 101.266 9.17919C100.935 8.53767 100.321 8.10485 99.4251 7.88073C98.599 7.59758 97.7885 7.58869 96.9936 7.85406C91.2858 9.77486 86.8038 11.2407 83.5478 12.2515C82.0304 12.7225 80.6842 13.1238 79.5107 13.4557C79.4698 13.4673 79.4291 13.4788 79.3886 13.4902C79.3184 13.51 79.2488 13.5295 79.1799 13.5487C78.7348 13.6731 78.3158 13.7869 77.9231 13.8901C77.2585 14.0647 76.6696 14.2093 76.155 14.3232C76.2893 14.0955 76.4251 13.8951 76.5625 13.7222C76.7 13.5493 76.8023 13.4059 76.8694 13.292C77.0174 13.0917 77.162 12.892 77.3048 12.6936C78.3492 11.2418 79.2548 9.84083 80.0201 8.49013C80.89 6.9548 80.9602 5.60256 80.231 4.43341C79.5017 3.26427 78.2836 2.56319 76.5768 2.33018C70.7862 1.50418 63.4254 2.19836 54.4943 4.41272C51.1524 5.2083 47.6028 6.23582 43.8455 7.49529C42.1668 8.04183 40.9858 8.46154 39.7513 8.90084C38.2744 9.42643 36.7207 9.97991 34.1422 10.8104C33.3473 11.0758 30.9111 12.4689 30.5847 13.2029C30.2552 13.882 30.3278 14.5107 30.8025 15.089C31.0853 15.4336 31.4547 15.5719 31.4547 15.5719C31.4547 15.5719 33.6507 16.404 34.4455 16.1387Z" fill="#2647C4"/>
<path d="M21.0303 20.3603C20.6634 20.3812 20.3682 20.3705 20.1449 20.3282C18.9582 20.1757 18.0955 19.8946 17.5568 19.4851C17.0884 19.0166 16.7729 18.6493 16.6106 18.3835C16.0281 17.2061 16.1414 15.9616 16.9502 14.65C17.756 13.2835 18.8155 11.8476 20.1287 10.3422C20.544 9.87834 20.9211 9.38916 21.26 8.87465C21.6691 8.30112 22.0095 7.81403 22.2812 7.41339C22.3515 7.35437 22.4553 7.23841 22.5927 7.06551C22.1586 7.20027 21.6176 7.39614 20.9696 7.65313C20.3949 7.90594 19.7165 8.27472 18.9342 8.75945C17.6475 9.43796 16.2984 10.3126 14.8868 11.3834C13.472 12.3994 12.0238 13.4723 10.5419 14.6021C10.1874 14.8424 9.79784 15.1122 9.37311 15.4115C9.02177 15.7066 8.67043 16.0017 8.3191 16.2968C7.68357 16.7732 6.92546 17.0365 6.04478 17.0866C5.08759 17.0861 4.29983 16.8283 3.68149 16.3132C2.99288 15.8572 2.66654 15.298 2.70246 14.6357C2.73526 13.9185 3.06942 13.3217 3.70495 12.8453C4.05629 12.5502 4.44432 12.253 4.86905 11.9537C5.22039 11.6586 5.57329 11.3909 5.92775 11.1506C8.18567 9.42635 10.4147 7.84131 12.6149 6.39547C14.8119 4.89479 16.991 3.72527 19.1521 2.88693C21.3132 2.04858 23.4337 1.7903 25.5136 2.1121C26.7737 2.26046 27.6762 2.59425 28.2212 3.11348C28.8364 3.57368 29.1916 3.99365 29.2869 4.3734C30.0161 5.54243 29.9426 6.83968 29.0666 8.26517C28.1875 9.6358 27.0593 11.1582 25.6821 12.8323C25.5415 12.9503 25.369 13.1528 25.1644 13.4395C25.0301 13.6673 24.8591 13.8971 24.6515 14.129C25.7336 13.7373 27.1413 13.2444 28.8745 12.6506C30.6078 12.0567 32.7017 11.3322 35.1564 10.4771C36.098 10.2034 36.9818 10.2081 37.8078 10.4913C38.6307 10.7195 39.2077 11.1544 39.5387 11.7959C39.94 12.3783 39.9392 13.0111 39.5363 13.6943C39.2037 14.3186 38.6416 14.7908 37.8499 15.1109C35.5358 15.8479 33.4387 16.5176 31.5587 17.1198C29.6786 17.7221 28.089 18.2528 26.7899 18.7119C26.0685 18.973 25.4189 19.2026 24.8411 19.4006C24.3336 19.5395 23.8629 19.6764 23.4288 19.8111C22.9213 19.9501 22.4872 20.0848 22.1265 20.2154C21.7626 20.2911 21.3973 20.3395 21.0303 20.3603Z" fill="#111F55"/>
<path fill-rule="evenodd" clip-rule="evenodd" d="M28.5201 12.7741C28.6375 12.7338 28.7539 12.6919 28.8745 12.6506C30.6078 12.0567 32.7017 11.3322 35.1564 10.4771C36.0981 10.2034 36.9852 10.209 37.8113 10.4921C38.6343 10.7204 39.2113 11.1553 39.5424 11.7968C39.9437 12.3793 39.943 13.0122 39.54 13.6955C39.2074 14.3198 38.6452 14.792 37.8534 15.1123C35.5391 15.8493 33.4418 16.519 31.5616 17.1213C29.6813 17.7236 28.0916 18.2544 26.7923 18.7136C26.0708 18.9748 25.4212 19.2043 24.8434 19.4023C24.3358 19.5413 23.865 19.6781 23.4308 19.8129C22.9233 19.9519 22.4892 20.0866 22.1284 20.2172C21.7646 20.293 21.3991 20.3413 21.0322 20.3622C20.6652 20.3831 20.37 20.3724 20.1467 20.3301C18.9599 20.1775 18.0971 19.8964 17.5583 19.4869C17.0898 19.0183 16.773 18.6494 16.6106 18.3835C16.0281 17.2061 16.1414 15.9616 16.9502 14.65C17.756 13.2835 18.8155 11.8476 20.1287 10.3422C20.3478 10.0974 20.5581 9.84649 20.756 9.58764C20.7829 9.55234 20.8097 9.51691 20.8363 9.48135C20.8625 9.44632 20.8885 9.41118 20.9143 9.3759C21.0343 9.2118 21.1483 9.04426 21.26 8.87465C21.458 8.59705 21.6418 8.34038 21.8076 8.10327C21.8171 8.08979 21.8265 8.07637 21.8358 8.06302C22.0013 7.82602 22.1485 7.60912 22.2812 7.41339C22.3515 7.35437 22.4553 7.23841 22.5927 7.06551C22.3707 7.13445 22.1226 7.21987 21.8446 7.32079C21.809 7.33372 21.7729 7.34691 21.7364 7.36036C21.5005 7.4472 21.2437 7.54442 20.9696 7.65313C20.4397 7.88624 19.8234 8.21849 19.117 8.64876C19.1049 8.65613 19.0928 8.66353 19.0807 8.67095C19.0328 8.70023 18.9829 8.72928 18.9342 8.75945C18.751 8.85604 18.5682 8.95729 18.3825 9.06183C17.2636 9.69172 16.0975 10.465 14.8868 11.3834C13.472 12.3994 12.0238 13.4723 10.5419 14.6021C10.1874 14.8424 9.79784 15.1122 9.37311 15.4115L8.3191 16.2968C7.68357 16.7732 6.92546 17.0365 6.04478 17.0866C5.08759 17.0861 4.29983 16.8283 3.68149 16.3132C2.99288 15.8572 2.66654 15.298 2.70246 14.6357C2.73526 13.9185 3.06942 13.3217 3.70495 12.8453C4.05629 12.5502 4.44432 12.253 4.86905 11.9537C5.22039 11.6586 5.57329 11.3909 5.92775 11.1506C8.18567 9.42635 10.4147 7.84131 12.6149 6.39547C14.8119 4.89479 16.991 3.72527 19.1521 2.88693C21.3132 2.04858 23.4337 1.7903 25.5136 2.1121C26.7737 2.26046 27.6762 2.59425 28.2212 3.11348C28.8364 3.57368 29.1916 3.99365 29.2869 4.3734C30.0161 5.54243 29.9426 6.83968 29.0666 8.26517C28.3225 9.42538 27.4025 10.6949 26.3015 12.0726C26.1017 12.3226 25.8936 12.5751 25.6821 12.8323C25.5415 12.9503 25.369 13.1528 25.1644 13.4395C25.0301 13.6673 24.8591 13.8971 24.6515 14.129C25.1259 13.9573 25.6652 13.7673 26.2648 13.5567C26.2876 13.5487 26.3105 13.5406 26.3334 13.5326C26.6497 13.4216 26.9831 13.3053 27.3337 13.1836C27.4279 13.1509 27.5234 13.1179 27.6201 13.0844C27.909 12.9844 28.209 12.881 28.5201 12.7741ZM30.0784 10.7723C31.1697 10.3949 32.3622 9.98084 33.6561 9.53013L33.7608 9.49366L33.8716 9.46146C34.7268 9.21287 35.7345 9.04162 36.8293 9.04745C37.875 9.05303 38.7625 9.21888 39.4786 9.4535C40.9569 9.88469 41.7481 10.6024 42.156 11.3659C42.6879 12.1666 42.6614 13.0172 42.155 13.8854C41.7295 14.6745 40.931 15.4286 39.5333 15.9939L39.3979 16.0487L39.25 16.0958C36.9374 16.8323 34.8425 17.5012 32.965 18.1026C31.1172 18.6946 29.5738 19.21 28.3272 19.6504C27.5953 19.9153 26.9281 20.1511 26.3272 20.357L26.1986 20.401L26.0613 20.4387C25.5976 20.5656 25.1768 20.6881 24.7969 20.806L24.7241 20.8286L24.6487 20.8492C24.2251 20.9652 23.9077 21.0656 23.6779 21.1488L23.3826 21.2557L23.0435 21.3263C22.4226 21.4555 21.7722 21.5432 21.1016 21.5814C20.5183 21.6146 19.7879 21.6178 19.068 21.5009C17.4384 21.2808 16.0772 20.8574 15.2025 20.1925L15.134 20.1404L15.0785 20.0849C14.5949 19.6012 14.2169 19.1718 14.0026 18.8209L13.986 18.7938L13.9724 18.7662C13.2879 17.3825 13.431 15.9328 14.3499 14.4389C14.5076 14.1716 14.6745 13.902 14.8505 13.6303C14.1839 14.1252 13.5097 14.6325 12.8279 15.1523L12.786 15.1843L12.7404 15.2152C12.4157 15.4353 12.0576 15.683 11.6656 15.9588L10.632 16.827L10.593 16.8562C9.65224 17.5614 8.17637 18.1899 6.11453 18.3073L5.9432 18.3171L5.77268 18.317C3.61672 18.3158 2.19718 17.7214 1.33793 17.0313C0.368218 16.3667 -0.0442418 15.582 0.0010235 14.7316C0.0407536 13.8772 0.437827 13.0488 1.38988 12.3202C1.75377 12.0161 2.15 11.7124 2.57763 11.4088C2.9351 11.1113 3.30296 10.8319 3.68257 10.5722C5.95236 8.84031 8.20054 7.24169 10.4276 5.77757C12.7209 4.21265 15.0784 2.93421 17.5226 1.98607C20.2624 0.923208 23.3847 0.462707 26.5222 0.93117C28.3715 1.1599 29.784 1.67562 30.6291 2.44538C31.2812 2.94203 31.7695 3.46791 31.946 4.0153C32.7701 5.40259 32.6384 6.90404 31.6672 8.48438L31.6628 8.49155L31.6582 8.49871C31.1965 9.21863 30.6696 9.97657 30.0784 10.7723Z" fill="#111F55"/>
</svg>
