<svg width="20" height="20" viewBox="0 0 20 20" fill="none" xmlns="http://www.w3.org/2000/svg">
<path d="M9.99984 18.3333C14.6022 18.3333 18.3332 14.6023 18.3332 9.99996C18.3332 5.39759 14.6022 1.66663 9.99984 1.66663C5.39746 1.66663 1.6665 5.39759 1.6665 9.99996C1.6665 14.6023 5.39746 18.3333 9.99984 18.3333Z" stroke="#14AE5C" stroke-width="2" stroke-linecap="round" stroke-linejoin="round"/>
<path d="M9.99984 15C12.7613 15 14.9998 12.7614 14.9998 9.99996C14.9998 7.23854 12.7613 4.99996 9.99984 4.99996C7.23841 4.99996 4.99984 7.23854 4.99984 9.99996C4.99984 12.7614 7.23841 15 9.99984 15Z" stroke="#14AE5C" stroke-width="2" stroke-linecap="round" stroke-linejoin="round"/>
<path d="M9.99984 11.6666C10.9203 11.6666 11.6665 10.9204 11.6665 9.99996C11.6665 9.07948 10.9203 8.33329 9.99984 8.33329C9.07936 8.33329 8.33317 9.07948 8.33317 9.99996C8.33317 10.9204 9.07936 11.6666 9.99984 11.6666Z" stroke="#14AE5C" stroke-width="2" stroke-linecap="round" stroke-linejoin="round"/>
</svg>
