<svg width="35" height="18" viewBox="0 0 35 18" fill="none" xmlns="http://www.w3.org/2000/svg">
<path d="M23.9658 16.61C23.7955 16.61 23.6374 16.5697 23.4914 16.4891C23.0292 16.328 22.7009 15.8648 22.5062 15.0995C22.3603 14.4148 22.3968 13.6495 22.6157 12.8037C22.859 11.9578 23.1752 11.0113 23.5644 9.96405C23.7104 9.60155 23.8442 9.23904 23.9658 8.87654C24.1117 8.47376 24.2334 8.11125 24.3307 7.78903C24.3793 7.66819 24.4158 7.5675 24.4401 7.48694C24.4645 7.36611 24.4888 7.26541 24.5131 7.18486C23.7833 6.98347 22.9319 6.94319 21.9589 7.06402C21.0102 7.14458 19.9399 7.44666 18.7479 7.97028C17.7019 8.41334 16.5708 8.99738 15.3545 9.72238C14.1625 10.4071 12.66 11.6738 11.3569 12.2133C11.0893 12.3744 10.3795 11.6738 10.3795 11.6738C10.3795 11.6738 10.2601 11.5572 10.1731 11.2932C10.0272 10.8502 10.015 10.387 10.1366 9.90364C10.2583 9.38002 11.0893 8.46187 11.3569 8.30075C12.9493 7.38202 13.3841 7.0036 14.6247 6.2786C15.8897 5.51331 17.0816 4.90914 18.2006 4.46608C21.1927 3.21745 23.6374 3.01606 25.5348 3.8619C26.0943 4.10357 26.4835 4.66747 26.7024 5.55359C26.9214 6.43971 26.8727 7.42653 26.5565 8.51404C26.2402 9.60155 25.8632 10.7293 25.4253 11.8974C25.401 11.978 25.3645 12.0787 25.3159 12.1995C25.2672 12.3203 25.2186 12.4613 25.1699 12.6224C25.7294 12.421 26.5565 12.0182 27.6511 11.4141C28.7458 10.8099 30.254 9.92377 32.1757 8.75571C32.4433 8.59459 32.7109 8.63487 32.9785 8.87654C33.2704 9.07793 33.465 9.4203 33.5623 9.90364C33.6839 10.3467 33.6839 10.8099 33.5623 11.2932C33.4406 11.7363 33.2217 12.0585 32.9055 12.2599C31.7865 12.9044 30.7648 13.4884 29.8404 14.012C28.9161 14.5356 28.089 14.9787 27.3592 15.3412C26.3862 15.8245 25.6443 16.1669 25.1334 16.3683C24.6226 16.5294 24.2334 16.61 23.9658 16.61Z" fill="#2647C4"/>
<path fill-rule="evenodd" clip-rule="evenodd" d="M9.75023 12.3103L9.74612 12.3062L9.73738 12.2974C9.73133 12.2912 9.72483 12.2843 9.71792 12.2769C9.70412 12.262 9.6887 12.2446 9.67205 12.2246C9.63874 12.1847 9.60047 12.1343 9.56031 12.0731C9.47968 11.95 9.39264 11.7845 9.32305 11.5733C9.12107 10.9601 9.10869 10.3257 9.26697 9.6919C9.33034 9.42614 9.4612 9.17791 9.57742 8.98783C9.70294 8.78254 9.85188 8.58051 9.99783 8.40114C10.1445 8.22087 10.2981 8.05128 10.439 7.91099C10.562 7.78856 10.7289 7.6339 10.8953 7.5337L10.9025 7.52938L10.9097 7.52521C11.6875 7.07648 12.1801 6.76127 12.6359 6.46574C12.6773 6.43894 12.7184 6.41222 12.7596 6.38552C13.1744 6.11619 13.5869 5.84842 14.1674 5.509C15.4608 4.72683 16.6932 4.10065 17.8636 3.63663C20.9529 2.34882 23.6757 2.05475 25.8952 3.04217C26.8165 3.44261 27.3208 4.32279 27.5718 5.33876C27.8366 6.41071 27.7661 7.56115 27.4164 8.76392C27.2145 9.45814 26.9887 10.1672 26.7392 10.8911C26.8917 10.8094 27.0515 10.7225 27.2188 10.6302C28.2971 10.035 29.7929 9.1564 31.7109 7.99059L31.7141 7.98864C31.9974 7.81807 32.3395 7.72385 32.7106 7.7797C33.0445 7.82997 33.3195 7.98938 33.5352 8.17382C34.0421 8.54573 34.3098 9.10526 34.4339 9.69665C34.5915 10.2915 34.5841 10.9019 34.4307 11.5116L34.4284 11.5209L34.4258 11.5301C34.2593 12.1368 33.9301 12.6688 33.3866 13.0149L33.3698 13.0257L33.3525 13.0356C32.2321 13.6809 31.2085 14.266 30.2819 14.7909C29.3474 15.3202 28.5056 15.7714 27.7577 16.1429C26.7794 16.6289 26.0096 16.9852 25.462 17.2011L25.4328 17.2126L25.4029 17.222C24.8739 17.3888 24.3766 17.5051 23.966 17.5051C23.6733 17.5051 23.3897 17.44 23.1272 17.3086C22.286 16.9808 21.8549 16.1698 21.6388 15.3201L21.6345 15.3031L21.6309 15.2861C21.4497 14.436 21.504 13.5269 21.7492 12.5792L21.7522 12.5676L21.7556 12.5561C22.0065 11.6837 22.3304 10.7152 22.7255 9.65208L22.7297 9.64077L22.7342 9.62959C22.8737 9.28308 23.0014 8.93711 23.1173 8.59167L23.1207 8.58151L23.1243 8.57144C23.2113 8.33145 23.2886 8.10826 23.3565 7.9016C22.971 7.87839 22.5431 7.89354 22.0695 7.95236L22.0522 7.9545L22.0349 7.95597C21.213 8.02577 20.2408 8.29231 19.1082 8.78984L19.1028 8.79223L19.0973 8.79454C18.0968 9.21835 17.0025 9.78235 15.8131 10.4913L15.8069 10.495L15.8007 10.4986C15.3791 10.7407 14.9199 11.0587 14.4079 11.4132C14.245 11.526 14.0767 11.6425 13.9026 11.7614C13.2287 12.2219 12.4735 12.7136 11.7389 13.0239C11.3043 13.2384 10.8832 13.0794 10.7498 13.0243C10.5471 12.9406 10.3655 12.819 10.2379 12.7253C10.1019 12.6253 9.9819 12.5229 9.89849 12.4484C9.85594 12.4104 9.8209 12.3779 9.79575 12.3541C9.78314 12.3422 9.7729 12.3324 9.76535 12.3251L9.75602 12.316L9.7532 12.3132L9.7529 12.3129L9.75126 12.3113L9.75023 12.3103ZM11.3571 12.2132C12.1602 11.8808 13.039 11.2721 13.8741 10.6937C14.3942 10.3335 14.8973 9.98505 15.3547 9.72229C16.571 8.99728 17.7022 8.41325 18.7482 7.97019C19.9401 7.44657 21.0104 7.14448 21.9591 7.06393C22.5623 6.98903 23.1186 6.97603 23.6283 7.02493C23.9409 7.05492 24.2359 7.1082 24.5133 7.18476C24.5042 7.21513 24.495 7.24837 24.4858 7.28447C24.4707 7.34411 24.4555 7.41157 24.4404 7.48685C24.4262 7.53378 24.4079 7.58754 24.3855 7.64815C24.3694 7.69157 24.3512 7.7385 24.3309 7.78894C24.3063 7.87055 24.2801 7.95474 24.2523 8.04152C24.1704 8.29737 24.075 8.57568 23.966 8.87645C23.8444 9.23895 23.7106 9.60146 23.5646 9.96396C23.1754 11.0112 22.8592 11.9577 22.6159 12.8036C22.397 13.6494 22.3605 14.4147 22.5065 15.0994C22.7011 15.8647 23.0295 16.3279 23.4917 16.489C23.6376 16.5696 23.7957 16.6099 23.966 16.6099C24.2336 16.6099 24.6228 16.5293 25.1336 16.3682C25.6445 16.1668 26.3864 15.8244 27.3595 15.3411C28.0892 14.9786 28.9163 14.5355 29.8407 14.0119C30.765 13.4883 31.7867 12.9043 32.9057 12.2598C33.2219 12.0584 33.4409 11.7362 33.5625 11.2931C33.6841 10.8098 33.6841 10.3466 33.5625 9.90354C33.4652 9.4202 33.2706 9.07784 32.9787 8.87645C32.7111 8.63478 32.4435 8.5945 32.1759 8.75561C30.2542 9.92368 28.746 10.8098 27.6514 11.414C27.1412 11.6955 26.6892 11.9333 26.2953 12.1274C26.2816 12.1342 26.2679 12.1409 26.2543 12.1476C26.2308 12.1591 26.2074 12.1705 26.1843 12.1817C26.0349 12.2542 25.8943 12.32 25.7626 12.3792C25.5398 12.4793 25.3423 12.5603 25.1701 12.6223C25.2188 12.4612 25.2674 12.3202 25.3161 12.1994C25.3647 12.0786 25.4012 11.9779 25.4256 11.8973C25.4782 11.7568 25.53 11.617 25.5809 11.4777C25.9532 10.4586 26.2785 9.47068 26.5567 8.51394C26.8729 7.42643 26.9216 6.43962 26.7027 5.55349C26.4837 4.66737 26.0945 4.10348 25.535 3.86181C23.6376 3.01597 21.1929 3.21736 18.2008 4.46598C17.0819 4.90904 15.8899 5.51322 14.625 6.2785C14.0601 6.60859 13.6623 6.86683 13.2463 7.13692C12.7485 7.46008 12.2245 7.80021 11.3571 8.30066C11.0895 8.46177 10.2585 9.37993 10.1369 9.90354C10.0152 10.3869 10.0274 10.8501 10.1734 11.2931C10.2603 11.5571 10.3797 11.6737 10.3797 11.6737C10.3797 11.6737 11.0895 12.3743 11.3571 12.2132Z" fill="#2647C4"/>
<path d="M6.8463 14.7458C6.72467 14.7458 6.62737 14.7257 6.55439 14.6854C6.16518 14.5243 5.88543 14.2827 5.71515 13.9604C5.5692 13.5979 5.4719 13.316 5.42324 13.1146C5.25296 12.2285 5.31378 11.3222 5.60569 10.3958C5.8976 9.42913 6.27464 8.42217 6.73683 7.37494C6.88279 7.05271 7.01658 6.71035 7.13821 6.34784C7.28416 5.94506 7.40579 5.6027 7.50309 5.32075C7.52742 5.28047 7.5639 5.19992 7.61256 5.07908C7.4666 5.15964 7.28416 5.28047 7.06523 5.44158C6.87062 5.6027 6.63953 5.84437 6.37195 6.16659C5.93408 6.60965 5.4719 7.19369 4.98538 7.91869C4.49887 8.60342 4.00019 9.32843 3.48935 10.0937C3.36772 10.2548 3.23393 10.4361 3.08798 10.6375C2.96635 10.8389 2.84472 11.0403 2.72309 11.2416C2.50416 11.5639 2.24874 11.725 1.95684 11.725C1.6406 11.6847 1.38518 11.4632 1.19058 11.0604C0.971645 10.6979 0.874343 10.275 0.898668 9.79163C0.922994 9.26801 1.04462 8.84509 1.26355 8.52287C1.38518 8.32148 1.51897 8.12009 1.66493 7.91869C1.78656 7.7173 1.90818 7.53605 2.02981 7.37494C2.80823 6.20687 3.57449 5.1395 4.32859 4.17282C5.08269 3.16587 5.82462 2.40058 6.55439 1.87696C7.28416 1.35335 7.9896 1.25265 8.67072 1.57488C9.08426 1.73599 9.37617 2.01794 9.54645 2.42072C9.74105 2.78322 9.85052 3.10545 9.87484 3.3874C10.0938 4.27352 10.0451 5.22005 9.72889 6.22701C9.41266 7.19369 9.01128 8.26106 8.52477 9.42913C8.47612 9.50968 8.4153 9.65066 8.34233 9.85205C8.29367 10.0132 8.23286 10.1743 8.15988 10.3354C8.52477 10.0937 8.99912 9.79163 9.58294 9.42913C10.1668 9.06662 10.8722 8.62356 11.6993 8.09995C12.0155 7.93883 12.3074 7.97911 12.575 8.22078C12.8426 8.42217 13.025 8.76454 13.1223 9.24788C13.2439 9.69094 13.2318 10.1541 13.0858 10.6375C12.9642 11.0805 12.7696 11.4028 12.502 11.6042C11.7236 12.0472 11.0182 12.45 10.3857 12.8125C9.75322 13.175 9.21805 13.4972 8.78019 13.7792C8.53693 13.9403 8.318 14.0813 8.12339 14.2021C7.95312 14.2827 7.795 14.3632 7.64904 14.4438C7.47876 14.5243 7.33281 14.6049 7.21118 14.6854C7.08955 14.7257 6.96793 14.7458 6.8463 14.7458Z" fill="#111F55"/>
<path fill-rule="evenodd" clip-rule="evenodd" d="M9.46288 9.50389C9.50244 9.47925 9.54254 9.45432 9.58316 9.4291C10.167 9.0666 10.8724 8.62354 11.6995 8.09992C12.0157 7.93881 12.3076 7.97908 12.5752 8.22075C12.8428 8.42214 13.0252 8.76451 13.1225 9.24785C13.2442 9.69091 13.232 10.1541 13.0861 10.6374C12.9644 11.0805 12.7698 11.4027 12.5022 11.6041C11.7238 12.0472 11.0184 12.45 10.3859 12.8125C9.75344 13.175 9.21827 13.4972 8.78041 13.7791C8.53715 13.9403 8.31822 14.0812 8.12362 14.2021C7.95334 14.2826 7.79522 14.3632 7.64927 14.4437C7.47899 14.5243 7.33303 14.6048 7.2114 14.6854C7.08977 14.7257 6.96815 14.7458 6.84652 14.7458C6.72489 14.7458 6.62759 14.7257 6.55461 14.6854C6.1654 14.5243 5.88565 14.2826 5.71537 13.9604C5.56942 13.5979 5.47212 13.3159 5.42347 13.1146C5.25319 12.2284 5.314 11.3222 5.60591 10.3958C5.89782 9.4291 6.27486 8.42214 6.73705 7.37491C6.81405 7.20491 6.88767 7.02931 6.9579 6.84809C6.96748 6.82338 6.977 6.79856 6.98645 6.77364C6.99576 6.7491 7.005 6.72446 7.01419 6.69971C7.05692 6.5846 7.09834 6.4673 7.13843 6.34782C7.20906 6.15288 7.274 5.97209 7.33325 5.80546C7.33662 5.79598 7.33997 5.78655 7.3433 5.77717C7.40244 5.6106 7.45578 5.45845 7.50331 5.32072C7.52764 5.28044 7.56413 5.19989 7.61278 5.07905C7.53812 5.12026 7.45392 5.172 7.36018 5.23428C7.34817 5.24225 7.336 5.25041 7.32368 5.25873C7.24413 5.31246 7.15805 5.37341 7.06545 5.44156C6.88603 5.5901 6.67559 5.80711 6.43414 6.09261C6.43 6.0975 6.42586 6.10241 6.4217 6.10734C6.40533 6.12677 6.38882 6.14651 6.37217 6.16656C6.30984 6.22963 6.24702 6.29556 6.1837 6.36434C5.80223 6.77875 5.40286 7.29686 4.9856 7.91867C4.49909 8.6034 4.00041 9.3284 3.48957 10.0937C3.36795 10.2548 3.23415 10.4361 3.0882 10.6374L2.72332 11.2416C2.50438 11.5638 2.24896 11.725 1.95706 11.725C1.64082 11.6847 1.3854 11.4631 1.1908 11.0604C0.971866 10.6979 0.874564 10.2749 0.898889 9.7916C0.923215 9.26799 1.04484 8.84506 1.26377 8.52284C1.3854 8.32145 1.51919 8.12006 1.66515 7.91867C1.78678 7.71728 1.9084 7.53602 2.03003 7.37491C2.80845 6.20684 3.57471 5.13947 4.32881 4.17279C5.08291 3.16584 5.82484 2.40055 6.55461 1.87694C7.28438 1.35332 7.98983 1.25262 8.67094 1.57485C9.08448 1.73596 9.37639 2.01791 9.54667 2.42069C9.74127 2.7832 9.85074 3.10542 9.87507 3.38737C10.094 4.27349 10.0453 5.22003 9.72911 6.22698C9.46146 7.04517 9.1328 7.93549 8.74316 8.89795C8.67245 9.07262 8.59972 9.24967 8.52499 9.4291C8.47634 9.50965 8.41552 9.65063 8.34255 9.85202C8.2939 10.0131 8.23308 10.1742 8.1601 10.3354C8.32007 10.2294 8.50108 10.1118 8.70312 9.98268C8.7108 9.97777 8.71852 9.97284 8.72626 9.96789C8.83283 9.89983 8.94516 9.8286 9.06325 9.75418C9.09499 9.73417 9.12715 9.71394 9.15973 9.69347C9.25706 9.63233 9.35811 9.56914 9.46288 9.50389ZM10.0153 8.1036C10.383 7.87283 10.7847 7.61948 11.2206 7.34351L11.2559 7.32117L11.2931 7.30222C11.5803 7.15591 11.9164 7.07255 12.278 7.12244C12.6233 7.17009 12.9134 7.32846 13.1455 7.53003C13.6258 7.90722 13.8737 8.46549 13.9941 9.04134C14.1547 9.64956 14.13 10.271 13.9463 10.8854C13.7909 11.4452 13.513 11.9639 13.0406 12.3194L12.9949 12.3539L12.9451 12.3822C12.1673 12.8249 11.4626 13.2272 10.8311 13.5892C10.2095 13.9454 9.68997 14.2584 9.26986 14.5288C9.02309 14.6922 8.79825 14.837 8.59587 14.9626L8.55255 14.9895L8.50647 15.0113C8.35091 15.0849 8.20958 15.157 8.08187 15.2275L8.05739 15.241L8.03211 15.253C7.88997 15.3202 7.78325 15.3805 7.70575 15.4318L7.6062 15.4977L7.49284 15.5353C7.2853 15.604 7.06879 15.6411 6.84652 15.6411C6.65321 15.6411 6.41186 15.613 6.17622 15.4974C5.64202 15.2685 5.20031 14.9019 4.92384 14.3787L4.9022 14.3377L4.8849 14.2948C4.73425 13.9206 4.61744 13.5905 4.55324 13.3248L4.54828 13.3042L4.54429 13.2835C4.3442 12.2422 4.41876 11.1871 4.75039 10.132C4.80754 9.94287 4.86774 9.75253 4.93099 9.56095C4.70146 9.8954 4.46919 10.2387 4.23418 10.5907L4.21975 10.6123L4.20409 10.6331C4.09268 10.7807 3.96971 10.9471 3.83504 11.1326L3.47728 11.7249L3.46382 11.7447C3.13978 12.2217 2.6404 12.6202 1.95706 12.6202H1.90027L1.84394 12.613C1.13173 12.5223 0.673959 12.0282 0.403083 11.4872C0.0952318 10.9604 -0.0262691 10.3689 0.00467644 9.74835C0.0338704 9.12461 0.180624 8.53484 0.508841 8.04118C0.634771 7.83383 0.771382 7.62799 0.918361 7.42362C1.04204 7.2208 1.16883 7.03158 1.29911 6.85735C2.08152 5.68428 2.85428 4.60788 3.61755 3.62904C4.40457 2.57918 5.20744 1.74168 6.0327 1.14955C6.95781 0.48577 7.99791 0.278808 9.02561 0.752423C9.63223 0.996889 10.0892 1.43322 10.3539 2.03184C10.5599 2.42252 10.7114 2.82778 10.7594 3.23579C11.0055 4.28552 10.9338 5.37899 10.5832 6.49522L10.5816 6.50029L10.58 6.50534C10.4139 7.01303 10.2256 7.54583 10.0153 8.1036Z" fill="#111F55"/>
</svg>
