<svg width="49" height="25" viewBox="0 0 49 25" fill="none" xmlns="http://www.w3.org/2000/svg">
<path d="M34.0685 23.2372C33.8283 23.2372 33.6052 23.1804 33.3993 23.0667C32.7472 22.8394 32.2838 22.1859 32.0092 21.1061C31.8033 20.14 31.8548 19.0603 32.1637 17.8668C32.5069 16.6734 32.9531 15.3379 33.5022 13.8604C33.7082 13.3489 33.8969 12.8374 34.0685 12.326C34.2745 11.7577 34.4461 11.2462 34.5834 10.7916C34.652 10.6211 34.7035 10.479 34.7378 10.3654C34.7721 10.1949 34.8065 10.0528 34.8408 9.93916C33.8111 9.65501 32.6099 9.59818 31.237 9.76867C29.8985 9.88232 28.3883 10.3085 26.7066 11.0473C25.2307 11.6724 23.6348 12.4965 21.9187 13.5194C20.2369 14.4855 18.117 16.2727 16.2784 17.0338C15.9008 17.2612 14.8994 16.2727 14.8994 16.2727C14.8994 16.2727 14.7309 16.1082 14.6082 15.7357C14.4023 15.1106 14.3851 14.4571 14.5567 13.7751C14.7283 13.0364 15.9008 11.7409 16.2784 11.5136C18.5252 10.2173 19.1387 9.68342 20.8891 8.6605C22.6738 7.58074 24.3555 6.7283 25.9343 6.10318C30.1559 4.34147 33.6052 4.05732 36.2823 5.25074C37.0717 5.59171 37.6208 6.38732 37.9297 7.63757C38.2386 8.88781 38.17 10.2801 37.7238 11.8145C37.2776 13.3489 36.7456 14.9401 36.1278 16.5882C36.0935 16.7018 36.042 16.8439 35.9734 17.0144C35.9047 17.1849 35.8361 17.3838 35.7675 17.6111C36.5569 17.327 37.7238 16.7587 39.2683 15.9062C40.8127 15.0538 42.9407 13.8035 45.6521 12.1555C46.0296 11.9282 46.4072 11.985 46.7847 12.326C47.1965 12.6101 47.4711 13.0932 47.6084 13.7751C47.78 14.4003 47.78 15.0538 47.6084 15.7357C47.4368 16.3609 47.1279 16.8155 46.6817 17.0996C45.1029 18.0089 43.6614 18.8329 42.3572 19.5717C41.053 20.3105 39.886 20.9356 38.8564 21.4471C37.4835 22.129 36.4367 22.6121 35.716 22.8962C34.9952 23.1236 34.4461 23.2372 34.0685 23.2372Z" fill="white"/>
<path fill-rule="evenodd" clip-rule="evenodd" d="M14.0108 17.1705L14.005 17.1648L13.9927 17.1523C13.9842 17.1435 13.975 17.1339 13.9653 17.1234C13.9458 17.1024 13.924 17.0778 13.9005 17.0497C13.8535 16.9933 13.7995 16.9223 13.7429 16.8358C13.6291 16.6622 13.5063 16.4287 13.4081 16.1306C13.1231 15.2655 13.1057 14.3705 13.329 13.4762C13.4184 13.1012 13.603 12.751 13.767 12.4828C13.9441 12.1931 14.1543 11.9081 14.3602 11.655C14.5671 11.4007 14.7839 11.1614 14.9827 10.9635C15.1562 10.7907 15.3917 10.5725 15.6265 10.4311L15.6366 10.425L15.6468 10.4191C16.7442 9.78603 17.4392 9.3413 18.0823 8.92433C18.1407 8.88651 18.1987 8.84882 18.2568 8.81114C18.8421 8.43114 19.424 8.05334 20.2431 7.57445C22.068 6.47087 23.8068 5.58737 25.4582 4.93268C29.8168 3.11568 33.6586 2.70077 36.79 4.09394C38.09 4.65893 38.8015 5.9008 39.1556 7.33425C39.5293 8.84668 39.4298 10.4699 38.9363 12.1669C38.6515 13.1464 38.333 14.1468 37.9809 15.1681C38.1961 15.0529 38.4216 14.9302 38.6575 14.8C40.179 13.9602 42.2895 12.7206 44.9956 11.0758L45.0001 11.073C45.3999 10.8324 45.8825 10.6994 46.406 10.7782C46.8772 10.8491 47.2652 11.0741 47.5696 11.3343C48.2847 11.859 48.6624 12.6485 48.8376 13.4829C49.0599 14.3222 49.0494 15.1834 48.833 16.0436L48.8297 16.0568L48.8261 16.0698C48.5911 16.9257 48.1267 17.6763 47.3599 18.1647L47.3361 18.1798L47.3117 18.1939C45.7309 19.1043 44.2867 19.9299 42.9794 20.6704C41.6609 21.4173 40.4732 22.0538 39.418 22.578C38.0376 23.2637 36.9515 23.7664 36.1789 24.071L36.1377 24.0872L36.0955 24.1005C35.3492 24.3359 34.6474 24.5 34.0682 24.5C33.6552 24.5 33.2551 24.4081 32.8846 24.2228C31.6977 23.7603 31.0896 22.616 30.7847 21.4171L30.7786 21.3932L30.7735 21.3691C30.5178 20.1698 30.5944 18.8871 30.9405 17.55L30.9447 17.5336L30.9494 17.5174C31.3034 16.2864 31.7604 14.9199 32.3179 13.42L32.3238 13.404L32.3301 13.3883C32.527 12.8994 32.7071 12.4112 32.8706 11.9238L32.8755 11.9095L32.8806 11.8953C33.0033 11.5567 33.1124 11.2418 33.2082 10.9502C32.6643 10.9175 32.0606 10.9388 31.3923 11.0218L31.368 11.0248L31.3435 11.0269C30.1838 11.1254 28.8122 11.5015 27.2142 12.2034L27.2066 12.2068L27.1989 12.2101C25.7872 12.808 24.2431 13.6038 22.5651 14.6041L22.5563 14.6093L22.5475 14.6143C21.9527 14.956 21.3048 15.4046 20.5824 15.9048C20.3526 16.0639 20.1152 16.2283 19.8696 16.3961C18.9187 17.0458 17.8532 17.7395 16.8167 18.1774C16.2035 18.48 15.6093 18.2557 15.4211 18.178C15.1352 18.0599 14.8789 17.8883 14.6989 17.756C14.507 17.615 14.3377 17.4705 14.22 17.3654C14.16 17.3118 14.1105 17.2659 14.0751 17.2323C14.0573 17.2155 14.0428 17.2017 14.0322 17.1913L14.019 17.1786L14.015 17.1747L14.0123 17.172L14.0108 17.1705ZM16.2784 17.0338C17.4114 16.5648 18.651 15.7057 19.8293 14.8896C20.5631 14.3815 21.2733 13.8901 21.9187 13.5194C23.6348 12.4965 25.2307 11.6724 26.7066 11.0473C28.3883 10.3085 29.8985 9.88232 31.237 9.76867C32.0879 9.66299 32.8726 9.64431 33.5917 9.7133C34.0327 9.75562 34.4493 9.83113 34.8408 9.93916C34.8278 9.98201 34.8145 10.0286 34.8016 10.0795C34.7802 10.1636 34.7592 10.2592 34.7378 10.3654C34.7178 10.4316 34.6916 10.5071 34.66 10.5926C34.6373 10.6539 34.612 10.7204 34.5834 10.7916C34.5486 10.9067 34.5112 11.0252 34.4721 11.1476C34.3566 11.5086 34.2223 11.9016 34.0685 12.326C33.8969 12.8374 33.7082 13.3489 33.5022 13.8604C32.9531 15.3379 32.5069 16.6734 32.1637 17.8668C31.8548 19.0603 31.8033 20.14 32.0092 21.1061C32.2838 22.1859 32.7472 22.8394 33.3993 23.0667C33.6052 23.1804 33.8283 23.2372 34.0685 23.2372C34.4461 23.2372 34.9952 23.1236 35.716 22.8962C36.4367 22.6121 37.4835 22.129 38.8564 21.4471C39.886 20.9356 41.053 20.3105 42.3572 19.5717C43.6614 18.8329 45.1029 18.0089 46.6817 17.0996C47.1279 16.8155 47.4368 16.3609 47.6084 15.7357C47.78 15.0538 47.78 14.4003 47.6084 13.7751C47.4711 13.0932 47.1965 12.6101 46.7847 12.326C46.4072 11.985 46.0296 11.9282 45.6521 12.1555C42.9407 13.8035 40.8127 15.0538 39.2683 15.9062C38.5485 16.3035 37.9104 16.6387 37.3546 16.9125C37.3352 16.9221 37.3159 16.9315 37.2968 16.9409C37.2635 16.9572 37.2306 16.9733 37.1979 16.9891C36.9872 17.0914 36.7889 17.1843 36.6031 17.2677C36.2887 17.409 36.0104 17.5237 35.7675 17.6111C35.8361 17.3838 35.9047 17.1849 35.9734 17.0144C36.042 16.8439 36.0935 16.7018 36.1278 16.5882C36.2021 16.39 36.2748 16.1923 36.3466 15.9957C36.872 14.5579 37.3313 13.1644 37.7238 11.8145C38.17 10.2801 38.2386 8.88781 37.9297 7.63757C37.6208 6.38732 37.0717 5.59171 36.2823 5.25074C33.6052 4.05732 30.1559 4.34147 25.9343 6.10318C24.3555 6.7283 22.6738 7.58074 20.8891 8.6605C20.0921 9.12622 19.5305 9.49023 18.9435 9.87131C18.2411 10.3273 17.5022 10.8075 16.2784 11.5136C15.9008 11.7409 14.7283 13.0364 14.5567 13.7751C14.3851 14.4571 14.4023 15.1106 14.6082 15.7357C14.7309 16.1082 14.8994 16.2727 14.8994 16.2727C14.8994 16.2727 15.9008 17.2612 16.2784 17.0338Z" fill="white"/>
<path d="M9.91347 20.6049C9.74188 20.6049 9.6046 20.5765 9.50165 20.5197C8.95256 20.2924 8.5579 19.9514 8.31767 19.4968C8.11177 18.9854 7.97449 18.5877 7.90586 18.3036C7.66563 17.0534 7.75143 15.7749 8.16324 14.468C8.57506 13.1042 9.10699 11.6836 9.75904 10.2062C9.96494 9.75161 10.1537 9.2686 10.3253 8.75719C10.5312 8.18896 10.7028 7.70596 10.8401 7.30819C10.8744 7.25137 10.9259 7.13772 10.9945 6.96725C10.7886 7.0809 10.5312 7.25137 10.2223 7.47866C9.94778 7.70596 9.62176 8.0469 9.24426 8.50149C8.62654 9.12654 7.97449 9.95049 7.28813 10.9733C6.60177 11.9393 5.89825 12.9621 5.17757 14.0418C5.00598 14.2691 4.81723 14.5248 4.61132 14.8089C4.43973 15.093 4.26814 15.3771 4.09655 15.6613C3.78768 16.1158 3.42734 16.3431 3.01553 16.3431C2.56939 16.2863 2.20905 15.9738 1.9345 15.4055C1.62564 14.8941 1.48837 14.2975 1.52269 13.6156C1.55701 12.8769 1.7286 12.2803 2.03746 11.8257C2.20905 11.5415 2.3978 11.2574 2.60371 10.9733C2.7753 10.6892 2.94689 10.4335 3.11848 10.2062C4.21666 8.55831 5.29768 7.05249 6.36154 5.68872C7.4254 4.26813 8.47211 3.18848 9.50165 2.44978C10.5312 1.71107 11.5264 1.56901 12.4873 2.0236C13.0707 2.25089 13.4826 2.64866 13.7228 3.21689C13.9973 3.72831 14.1518 4.18289 14.1861 4.58066C14.4949 5.83078 14.4263 7.16613 13.9802 8.58672C13.534 9.95049 12.9678 11.4563 12.2814 13.1042C12.2128 13.2178 12.127 13.4167 12.024 13.7008C11.9554 13.9281 11.8696 14.1554 11.7666 14.3827C12.2814 14.0418 12.9506 13.6156 13.7743 13.1042C14.5979 12.5928 15.5931 11.9677 16.7599 11.229C17.2061 11.0017 17.6179 11.0585 17.9954 11.3995C18.3729 11.6836 18.6303 12.1666 18.7675 12.8485C18.9391 13.4735 18.922 14.127 18.7161 14.8089C18.5445 15.434 18.2699 15.8886 17.8924 16.1727C16.7942 16.7977 15.799 17.366 14.9068 17.8774C14.0145 18.3888 13.2595 18.8434 12.6418 19.2411C12.2986 19.4684 11.9897 19.6673 11.7152 19.8378C11.4749 19.9514 11.2519 20.0651 11.046 20.1787C10.8057 20.2924 10.5998 20.406 10.4282 20.5197C10.2566 20.5765 10.0851 20.6049 9.91347 20.6049Z" fill="white"/>
<path fill-rule="evenodd" clip-rule="evenodd" d="M13.6058 13.211C13.6616 13.1762 13.7169 13.1398 13.7743 13.1042C14.5979 12.5928 15.5931 11.9677 16.7599 11.229C17.2061 11.0017 17.6195 11.0596 17.997 11.4006C18.3745 11.6847 18.632 12.1678 18.7692 12.8497C18.9409 13.4748 18.9237 14.1284 18.7178 14.8103C18.5462 15.4355 18.2716 15.8901 17.894 16.1742C16.7958 16.7994 15.8004 17.3676 14.9081 17.8791C14.0157 18.3906 13.2606 18.8452 12.6428 19.243C12.2996 19.4703 11.9907 19.6692 11.7162 19.8397C11.4759 19.9534 11.2528 20.067 11.0469 20.1807C10.8066 20.2944 10.6007 20.408 10.4291 20.5217C10.2575 20.5785 10.0859 20.6069 9.91428 20.6069C9.74267 20.6069 9.60539 20.5785 9.50242 20.5217C8.95327 20.2944 8.55858 19.9534 8.31833 19.4987C8.1124 18.9873 7.9745 18.5877 7.90586 18.3036C7.66563 17.0534 7.75143 15.7749 8.16324 14.468C8.57506 13.1042 9.10699 11.6836 9.75904 10.2062C9.86768 9.96634 9.97234 9.71954 10.0714 9.46386C10.0849 9.42899 10.0984 9.39398 10.1117 9.35881C10.1248 9.32419 10.1379 9.28942 10.1509 9.25451C10.2111 9.09209 10.2687 8.92578 10.3253 8.75719C10.4249 8.48215 10.5174 8.22789 10.601 7.99279C10.6058 7.97942 10.6105 7.96611 10.6152 7.95287C10.6986 7.71786 10.773 7.50252 10.8401 7.30819C10.8744 7.25137 10.9259 7.13772 10.9945 6.96725C10.8892 7.02539 10.7713 7.09903 10.639 7.18689C10.6221 7.19815 10.6049 7.20965 10.5875 7.2214C10.4753 7.29721 10.353 7.38251 10.2223 7.47866C9.96918 7.68824 9.67312 7.99512 9.33245 8.39793C9.32661 8.40483 9.32076 8.41176 9.3149 8.41871C9.2918 8.44613 9.26776 8.47319 9.24426 8.50149C9.15632 8.59047 9.06843 8.68428 8.9791 8.78133C8.44087 9.36603 7.87685 10.096 7.28813 10.9733C6.60177 11.9393 5.89825 12.9621 5.17757 14.0418C5.00598 14.2691 4.81723 14.5248 4.61132 14.8089L4.09655 15.6613C3.78768 16.1158 3.42734 16.3431 3.01553 16.3431C2.56939 16.2863 2.20905 15.9738 1.9345 15.4055C1.62564 14.8941 1.48837 14.2975 1.52269 13.6156C1.55701 12.8769 1.7286 12.2803 2.03746 11.8257C2.20905 11.5415 2.3978 11.2574 2.60371 10.9733C2.7753 10.6892 2.94689 10.4335 3.11848 10.2062C4.21666 8.55831 5.29768 7.05249 6.36154 5.68872C7.4254 4.26813 8.47211 3.18848 9.50165 2.44978C10.5312 1.71107 11.5264 1.56901 12.4873 2.0236C13.0707 2.25089 13.4826 2.64866 13.7228 3.21689C13.9973 3.72831 14.1518 4.18289 14.1861 4.58066C14.4949 5.83078 14.4263 7.16613 13.9802 8.58672C13.6025 9.74111 13.14 10.9981 12.5903 12.356C12.4905 12.6025 12.3869 12.851 12.2814 13.1042C12.2128 13.2178 12.127 13.4167 12.024 13.7008C11.9554 13.9281 11.8696 14.1554 11.7666 14.3827C11.9923 14.2332 12.2487 14.0688 12.5338 13.8865C12.5446 13.8796 12.5555 13.8726 12.5664 13.8656C12.7168 13.7696 12.8753 13.6691 13.0419 13.5641C13.0867 13.5359 13.1321 13.5073 13.178 13.4785C13.3154 13.3922 13.4579 13.303 13.6058 13.211ZM14.3852 11.2353C14.9039 10.9097 15.4707 10.5522 16.0858 10.1628L16.1355 10.1313L16.188 10.1046C16.5932 9.89816 17.0675 9.78055 17.5776 9.85094C18.0649 9.91817 18.4741 10.1416 18.8017 10.426C19.4793 10.9582 19.829 11.7459 19.9989 12.5584C20.2256 13.4165 20.1907 14.2933 19.9316 15.1602C19.7123 15.95 19.3201 16.6819 18.6536 17.1835L18.5891 17.232L18.5189 17.272C17.4214 17.8966 16.4272 18.4643 15.5362 18.975C14.6592 19.4777 13.9262 19.9192 13.3334 20.3007C12.9852 20.5312 12.668 20.7355 12.3825 20.9128L12.3214 20.9508L12.2563 20.9815C12.0369 21.0854 11.8374 21.1871 11.6573 21.2866L11.6227 21.3056L11.5871 21.3225C11.3865 21.4174 11.2359 21.5024 11.1266 21.5748L10.9861 21.6678L10.8262 21.7208C10.5334 21.8177 10.2279 21.8701 9.91428 21.8701C9.64153 21.8701 9.30101 21.8305 8.96855 21.6674C8.21483 21.3443 7.59162 20.8271 7.20154 20.0889L7.17101 20.0311L7.1466 19.9705C6.93404 19.4426 6.76923 18.9769 6.67865 18.6019L6.67165 18.573L6.66603 18.5437C6.38371 17.0745 6.4889 15.5859 6.95681 14.0971C7.03744 13.8303 7.12239 13.5618 7.21163 13.2915C6.88778 13.7634 6.56006 14.2477 6.22848 14.7444L6.20812 14.7749L6.18602 14.8042C6.02884 15.0124 5.85534 15.2472 5.66533 15.5089L5.16055 16.3447L5.14157 16.3726C4.68437 17.0455 3.97979 17.6079 3.01564 17.6079H2.93552L2.85605 17.5977C1.85118 17.4697 1.2053 16.7725 0.823113 16.0093C0.388759 15.266 0.217331 14.4314 0.260993 13.5559C0.302183 12.6758 0.509241 11.8437 0.972329 11.1472C1.15001 10.8547 1.34275 10.5642 1.55013 10.2759C1.72464 9.98972 1.90351 9.72274 2.08734 9.47691C3.19125 7.82181 4.28156 6.30309 5.35847 4.92203C6.46888 3.44077 7.60167 2.25912 8.76605 1.42367C10.0713 0.487134 11.5388 0.195128 12.9888 0.86336C13.8447 1.20828 14.4894 1.82391 14.8629 2.66852C15.1536 3.21974 15.3673 3.79152 15.435 4.36719C15.7823 5.84828 15.6811 7.39107 15.1865 8.96598L15.1842 8.97313L15.1819 8.98026C14.9476 9.69657 14.6819 10.4483 14.3852 11.2353Z" fill="white"/>
</svg>
